<svg xmlns="http://www.w3.org/2000/svg" viewBox="0 0 1200 800" width="1200" height="800" role="img"><rect x="0" y="0" width="1200" height="640" fill="#B8452E"/><line x1="80" y1="0" x2="80" y2="640" stroke="#F3E3C3" stroke-width="1.5"/><line x1="160" y1="0" x2="160" y2="640" stroke="#F3E3C3" stroke-width="1.5"/><line x1="240" y1="0" x2="240" y2="640" stroke="#F3E3C3" stroke-width="1.5"/><line x1="320" y1="0" x2="320" y2="640" stroke="#F3E3C3" stroke-width="1.5"/><line x1="400" y1="0" x2="400" y2="640" stroke="#F3E3C3" stroke-width="1.5"/><line x1="480" y1="0" x2="480" y2="640" stroke="#F3E3C3" stroke-width="1.5"/><line x1="560" y1="0" x2="560" y2="640" stroke="#F3E3C3" stroke-width="1.5"/><line x1="640" y1="0" x2="640" y2="640" stroke="#F3E3C3" stroke-width="1.5"/><line x1="720" y1="0" x2="720" y2="640" stroke="#F3E3C3" stroke-width="1.5"/><line x1="800" y1="0" x2="800" y2="640" stroke="#F3E3C3" stroke-width="1.5"/><line x1="880" y1="0" x2="880" y2="640" stroke="#F3E3C3" stroke-width="1.5"/><line x1="960" y1="0" x2="960" y2="640" stroke="#F3E3C3" stroke-width="1.5"/><line x1="1040" y1="0" x2="1040" y2="640" stroke="#F3E3C3" stroke-width="1.5"/><line x1="1120" y1="0" x2="1120" y2="640" stroke="#F3E3C3" stroke-width="1.5"/><line x1="0" y1="80" x2="1200" y2="80" stroke="#F3E3C3" stroke-width="1.5"/><line x1="0" y1="160" x2="1200" y2="160" stroke="#F3E3C3" stroke-width="1.5"/><line x1="0" y1="240" x2="1200" y2="240" stroke="#F3E3C3" stroke-width="1.5"/><line x1="0" y1="320" x2="1200" y2="320" stroke="#F3E3C3" stroke-width="1.5"/><line x1="0" y1="400" x2="1200" y2="400" stroke="#F3E3C3" stroke-width="1.5"/><line x1="0" y1="480" x2="1200" y2="480" stroke="#F3E3C3" stroke-width="1.5"/><line x1="0" y1="560" x2="1200" y2="560" stroke="#F3E3C3" stroke-width="1.5"/><rect x="0" y="640" width="1200" height="160" fill="#9C4A2F"/><rect x="560" y="0" width="600" height="640" fill="#E8F1F5" opacity="0.35"/><line x1="560" y1="0" x2="560" y2="640" stroke="#B8902F" stroke-width="6"/><rect x="880" y="60" width="120" height="14" fill="#B8902F"/><circle cx="940" cy="100" r="40" fill="#B8902F"/><line x1="910" y1="140" x2="905" y2="300" stroke="#9CC4D8" stroke-width="2" opacity="0.6"/><line x1="919" y1="140" x2="914" y2="300" stroke="#9CC4D8" stroke-width="2" opacity="0.6"/><line x1="928" y1="140" x2="923" y2="300" stroke="#9CC4D8" stroke-width="2" opacity="0.6"/><line x1="937" y1="140" x2="932" y2="300" stroke="#9CC4D8" stroke-width="2" opacity="0.6"/><line x1="946" y1="140" x2="941" y2="300" stroke="#9CC4D8" stroke-width="2" opacity="0.6"/><line x1="955" y1="140" x2="950" y2="300" stroke="#9CC4D8" stroke-width="2" opacity="0.6"/><line x1="964" y1="140" x2="959" y2="300" stroke="#9CC4D8" stroke-width="2" opacity="0.6"/><line x1="973" y1="140" x2="968" y2="300" stroke="#9CC4D8" stroke-width="2" opacity="0.6"/><rect x="700" y="280" width="140" height="90" fill="#F3E3C3" stroke="#B8902F" stroke-width="3"/><rect x="720" y="320" width="20" height="50" fill="#1F5E4F" rx="4"/><rect x="760" y="330" width="20" height="40" fill="#C9A84C" rx="4"/><rect x="120" y="380" width="300" height="30" fill="#F7EBD3"/><rect x="120" y="410" width="300" height="90" fill="#7A4A2A"/><rect x="1032" y="752" width="152" height="34" rx="17" fill="#000" opacity=".45"/><text x="1108" y="775" font-family="Arial,sans-serif" font-size="16" font-weight="700" fill="#fff" text-anchor="middle" letter-spacing="3">SAMPLE</text></svg>