<svg xmlns="http://www.w3.org/2000/svg" viewBox="0 0 1200 800" width="1200" height="800" role="img"><rect x="0" y="0" width="1200" height="640" fill="#F0DFC0"/><line x1="100" y1="0" x2="100" y2="640" stroke="#7B3F24" stroke-width="1.5"/><line x1="200" y1="0" x2="200" y2="640" stroke="#7B3F24" stroke-width="1.5"/><line x1="300" y1="0" x2="300" y2="640" stroke="#7B3F24" stroke-width="1.5"/><line x1="400" y1="0" x2="400" y2="640" stroke="#7B3F24" stroke-width="1.5"/><line x1="500" y1="0" x2="500" y2="640" stroke="#7B3F24" stroke-width="1.5"/><line x1="600" y1="0" x2="600" y2="640" stroke="#7B3F24" stroke-width="1.5"/><line x1="700" y1="0" x2="700" y2="640" stroke="#7B3F24" stroke-width="1.5"/><line x1="800" y1="0" x2="800" y2="640" stroke="#7B3F24" stroke-width="1.5"/><line x1="900" y1="0" x2="900" y2="640" stroke="#7B3F24" stroke-width="1.5"/><line x1="1000" y1="0" x2="1000" y2="640" stroke="#7B3F24" stroke-width="1.5"/><line x1="1100" y1="0" x2="1100" y2="640" stroke="#7B3F24" stroke-width="1.5"/><line x1="0" y1="100" x2="1200" y2="100" stroke="#7B3F24" stroke-width="1.5"/><line x1="0" y1="200" x2="1200" y2="200" stroke="#7B3F24" stroke-width="1.5"/><line x1="0" y1="300" x2="1200" y2="300" stroke="#7B3F24" stroke-width="1.5"/><line x1="0" y1="400" x2="1200" y2="400" stroke="#7B3F24" stroke-width="1.5"/><line x1="0" y1="500" x2="1200" y2="500" stroke="#7B3F24" stroke-width="1.5"/><rect x="0" y="640" width="1200" height="160" fill="#8E3B26"/><rect x="300" y="180" width="600" height="160" fill="#5A2D17" opacity="0.85"/><rect x="310" y="190" width="580" height="140" fill="#7B3F24"/><rect x="310" y="330" width="580" height="10" fill="#FFD58A" opacity="0.8"/><rect x="350" y="250" width="50" height="80" fill="#C8102E" rx="8"/><rect x="455" y="230" width="50" height="100" fill="#2F6B5A" rx="8"/><rect x="560" y="250" width="50" height="80" fill="#F6EBD8" rx="8"/><rect x="665" y="230" width="50" height="100" fill="#C8102E" rx="8"/><rect x="770" y="250" width="50" height="80" fill="#6A3A1E" rx="8"/><line x1="300" y1="450" x2="900" y2="450" stroke="#B8902F" stroke-width="8"/><rect x="360" y="450" width="200" height="160" fill="#2F6B5A" opacity="0.9"/><rect x="620" y="450" width="200" height="140" fill="#C8102E" opacity="0.7"/><rect x="1032" y="752" width="152" height="34" rx="17" fill="#000" opacity=".45"/><text x="1108" y="775" font-family="Arial,sans-serif" font-size="16" font-weight="700" fill="#fff" text-anchor="middle" letter-spacing="3">SAMPLE</text></svg>