<svg xmlns="http://www.w3.org/2000/svg" viewBox="0 0 1200 800" width="1200" height="800" role="img"><rect x="0" y="0" width="1200" height="620" fill="#C9C6C1"/><rect x="0" y="0" width="1200" height="620" fill="#8E8A85"/><rect x="0" y="620" width="1200" height="180" fill="#5A5652"/><line x1="0" y1="668" x2="1200" y2="668" stroke="#4C4844" stroke-width="2"/><line x1="0" y1="716" x2="1200" y2="716" stroke="#4C4844" stroke-width="2"/><line x1="0" y1="764" x2="1200" y2="764" stroke="#4C4844" stroke-width="2"/><line x1="0" y1="812" x2="1200" y2="812" stroke="#4C4844" stroke-width="2"/><line x1="0" y1="860" x2="1200" y2="860" stroke="#4C4844" stroke-width="2"/><rect x="0" y="610" width="1200" height="10" fill="#E6E3DE" opacity="0.8"/><rect x="200" y="60" width="240" height="160" fill="#2B2B2B"/><rect x="480" y="60" width="240" height="160" fill="#2B2B2B"/><rect x="760" y="60" width="240" height="160" fill="#2B2B2B"/><rect x="220" y="85" width="140" height="8" fill="#E6E3DE" opacity="0.8"/><rect x="220" y="117" width="100" height="8" fill="#E6E3DE" opacity="0.8"/><rect x="220" y="149" width="140" height="8" fill="#E6E3DE" opacity="0.8"/><rect x="220" y="181" width="100" height="8" fill="#E6E3DE" opacity="0.8"/><rect x="500" y="85" width="140" height="8" fill="#E6E3DE" opacity="0.8"/><rect x="500" y="117" width="100" height="8" fill="#E6E3DE" opacity="0.8"/><rect x="500" y="149" width="140" height="8" fill="#E6E3DE" opacity="0.8"/><rect x="500" y="181" width="100" height="8" fill="#E6E3DE" opacity="0.8"/><rect x="780" y="85" width="140" height="8" fill="#E6E3DE" opacity="0.8"/><rect x="780" y="117" width="100" height="8" fill="#E6E3DE" opacity="0.8"/><rect x="780" y="149" width="140" height="8" fill="#E6E3DE" opacity="0.8"/><rect x="780" y="181" width="100" height="8" fill="#E6E3DE" opacity="0.8"/><rect x="150" y="400" width="900" height="220" fill="#7B5B44"/><rect x="140" y="390" width="920" height="20" fill="#E6E3DE"/><rect x="170" y="420" width="90" height="180" fill="#B5523B" opacity="0.15"/><rect x="280" y="420" width="90" height="180" fill="#B5523B" opacity="0.15"/><rect x="390" y="420" width="90" height="180" fill="#B5523B" opacity="0.15"/><rect x="500" y="420" width="90" height="180" fill="#B5523B" opacity="0.15"/><rect x="610" y="420" width="90" height="180" fill="#B5523B" opacity="0.15"/><rect x="720" y="420" width="90" height="180" fill="#B5523B" opacity="0.15"/><rect x="830" y="420" width="90" height="180" fill="#B5523B" opacity="0.15"/><rect x="940" y="420" width="90" height="180" fill="#B5523B" opacity="0.15"/><rect x="820" y="330" width="90" height="60" fill="#1E1E1E" rx="6"/><ellipse cx="400" cy="382" rx="50" ry="10" fill="#E6E3DE"/><line x1="300" y1="0" x2="300" y2="260" stroke="#1E1E1E" stroke-width="3"/><path d="M270.0 300 Q300 220 330.0 300 Z" fill="#B5523B"/><ellipse cx="300" cy="306" rx="25.0" ry="10" fill="#FFD9A0" opacity="0.9"/><line x1="600" y1="0" x2="600" y2="260" stroke="#1E1E1E" stroke-width="3"/><path d="M570.0 300 Q600 220 630.0 300 Z" fill="#B5523B"/><ellipse cx="600" cy="306" rx="25.0" ry="10" fill="#FFD9A0" opacity="0.9"/><line x1="900" y1="0" x2="900" y2="260" stroke="#1E1E1E" stroke-width="3"/><path d="M870.0 300 Q900 220 930.0 300 Z" fill="#B5523B"/><ellipse cx="900" cy="306" rx="25.0" ry="10" fill="#FFD9A0" opacity="0.9"/><rect x="1032" y="752" width="152" height="34" rx="17" fill="#000" opacity=".45"/><text x="1108" y="775" font-family="Arial,sans-serif" font-size="16" font-weight="700" fill="#fff" text-anchor="middle" letter-spacing="3">SAMPLE</text></svg>