<svg xmlns="http://www.w3.org/2000/svg" viewBox="0 0 1200 800" width="1200" height="800" role="img"><rect x="0" y="0" width="1200" height="800" fill="#E9E1D3"/><rect x="0" y="600" width="1200" height="200" fill="#A9774C"/><rect x="0" y="0" width="1200" height="160" fill="#F4EEE4"/><rect x="160" y="160" width="880" height="40" fill="#F4EEE4"/><rect x="160" y="196" width="880" height="14" fill="#FFE6B0" opacity="0.9"/><path d="M160 210 L1040 210 L1100 330 L100 330 Z" fill="#FFE6B0" opacity="0.2"/><circle cx="80" cy="120" r="8" fill="#FFE6B0" stroke="#3A3A3A" stroke-width="2"/><polygon points="72,128 88,128 140,340 20,340" fill="#FFE6B0" opacity="0.12"/><circle cx="1120" cy="120" r="8" fill="#FFE6B0" stroke="#3A3A3A" stroke-width="2"/><polygon points="1112,128 1128,128 1180,340 1060,340" fill="#FFE6B0" opacity="0.12"/><circle cx="300" cy="240" r="8" fill="#FFE6B0" stroke="#3A3A3A" stroke-width="2"/><polygon points="292,248 308,248 360,460 240,460" fill="#FFE6B0" opacity="0.12"/><circle cx="900" cy="240" r="8" fill="#FFE6B0" stroke="#3A3A3A" stroke-width="2"/><polygon points="892,248 908,248 960,460 840,460" fill="#FFE6B0" opacity="0.12"/><rect x="380" y="470" width="440" height="130" fill="#3E6B7A" rx="20"/><rect x="400" y="520" width="400" height="60" fill="#F4EEE4" rx="12"/><ellipse cx="600" cy="700" rx="300" ry="40" fill="#D98E32" opacity="0.35"/><rect x="1032" y="752" width="152" height="34" rx="17" fill="#000" opacity=".45"/><text x="1108" y="775" font-family="Arial,sans-serif" font-size="16" font-weight="700" fill="#fff" text-anchor="middle" letter-spacing="3">SAMPLE</text></svg>