<svg xmlns="http://www.w3.org/2000/svg" viewBox="0 0 1200 800" width="1200" height="800" role="img"><rect x="0" y="0" width="1200" height="560" fill="#EADFCB"/><rect x="360" y="0" width="480" height="560" fill="#D9A441"/><rect x="0" y="560" width="1200" height="240" fill="#B88B5A"/><line x1="0" y1="608" x2="1200" y2="608" stroke="#A57A4C" stroke-width="2"/><line x1="0" y1="656" x2="1200" y2="656" stroke="#A57A4C" stroke-width="2"/><line x1="0" y1="704" x2="1200" y2="704" stroke="#A57A4C" stroke-width="2"/><line x1="0" y1="752" x2="1200" y2="752" stroke="#A57A4C" stroke-width="2"/><line x1="0" y1="800" x2="1200" y2="800" stroke="#A57A4C" stroke-width="2"/><rect x="0" y="550" width="1200" height="10" fill="#F3E9D6" opacity="0.8"/><circle cx="600" cy="250" r="130" fill="#3B3B3B"/><circle cx="600" cy="250" r="120" fill="#DCE6EC"/><circle cx="600" cy="250" r="145" fill="#FFE3A8" opacity="0.25"/><rect x="400" y="420" width="400" height="30" fill="#9A6B3F"/><rect x="420" y="450" width="360" height="100" fill="#9A6B3F" opacity="0.85"/><rect x="590" y="490" width="20" height="6" fill="#3B3B3B"/><rect x="470" y="380" width="30" height="40" fill="#A0452E" rx="6"/><rect x="520" y="395" width="50" height="25" fill="#4E6E3A" rx="6"/><ellipse cx="600" cy="610" rx="60" ry="16" fill="#4E6E3A"/><line x1="600" y1="610" x2="600" y2="690" stroke="#3B3B3B" stroke-width="6"/><rect x="1024.0" y="500.0" width="52.0" height="60.0" fill="#4E3B2A" rx="6"/><ellipse cx="1050" cy="450.0" rx="55.0" ry="60.0" fill="#3F6B35"/><ellipse cx="1015.0" cy="475.0" rx="30.0" ry="40.0" fill="#3F6B35" opacity="0.85"/><ellipse cx="1088.0" cy="468.0" rx="30.0" ry="42.0" fill="#3F6B35" opacity="0.8"/><rect x="1032" y="752" width="152" height="34" rx="17" fill="#000" opacity=".45"/><text x="1108" y="775" font-family="Arial,sans-serif" font-size="16" font-weight="700" fill="#fff" text-anchor="middle" letter-spacing="3">SAMPLE</text></svg>