<svg xmlns="http://www.w3.org/2000/svg" viewBox="0 0 1200 800" width="1200" height="800" role="img"><rect x="0" y="0" width="1200" height="640" fill="#C9C6C1"/><rect x="0" y="640" width="1200" height="160" fill="#5A5652"/><line x1="0" y1="688" x2="1200" y2="688" stroke="#4C4844" stroke-width="2"/><line x1="0" y1="736" x2="1200" y2="736" stroke="#4C4844" stroke-width="2"/><line x1="0" y1="784" x2="1200" y2="784" stroke="#4C4844" stroke-width="2"/><line x1="0" y1="832" x2="1200" y2="832" stroke="#4C4844" stroke-width="2"/><line x1="0" y1="880" x2="1200" y2="880" stroke="#4C4844" stroke-width="2"/><rect x="0" y="630" width="1200" height="10" fill="#E6E3DE" opacity="0.8"/><rect x="0" y="0" width="1200" height="300" fill="#8E8A85"/><line x1="60" y1="0" x2="60" y2="300" stroke="#C9C6C1" stroke-width="1.5"/><line x1="120" y1="0" x2="120" y2="300" stroke="#C9C6C1" stroke-width="1.5"/><line x1="180" y1="0" x2="180" y2="300" stroke="#C9C6C1" stroke-width="1.5"/><line x1="240" y1="0" x2="240" y2="300" stroke="#C9C6C1" stroke-width="1.5"/><line x1="300" y1="0" x2="300" y2="300" stroke="#C9C6C1" stroke-width="1.5"/><line x1="360" y1="0" x2="360" y2="300" stroke="#C9C6C1" stroke-width="1.5"/><line x1="420" y1="0" x2="420" y2="300" stroke="#C9C6C1" stroke-width="1.5"/><line x1="480" y1="0" x2="480" y2="300" stroke="#C9C6C1" stroke-width="1.5"/><line x1="540" y1="0" x2="540" y2="300" stroke="#C9C6C1" stroke-width="1.5"/><line x1="600" y1="0" x2="600" y2="300" stroke="#C9C6C1" stroke-width="1.5"/><line x1="660" y1="0" x2="660" y2="300" stroke="#C9C6C1" stroke-width="1.5"/><line x1="720" y1="0" x2="720" y2="300" stroke="#C9C6C1" stroke-width="1.5"/><line x1="780" y1="0" x2="780" y2="300" stroke="#C9C6C1" stroke-width="1.5"/><line x1="840" y1="0" x2="840" y2="300" stroke="#C9C6C1" stroke-width="1.5"/><line x1="900" y1="0" x2="900" y2="300" stroke="#C9C6C1" stroke-width="1.5"/><line x1="960" y1="0" x2="960" y2="300" stroke="#C9C6C1" stroke-width="1.5"/><line x1="1020" y1="0" x2="1020" y2="300" stroke="#C9C6C1" stroke-width="1.5"/><line x1="1080" y1="0" x2="1080" y2="300" stroke="#C9C6C1" stroke-width="1.5"/><line x1="1140" y1="0" x2="1140" y2="300" stroke="#C9C6C1" stroke-width="1.5"/><line x1="0" y1="60" x2="1200" y2="60" stroke="#C9C6C1" stroke-width="1.5"/><line x1="0" y1="120" x2="1200" y2="120" stroke="#C9C6C1" stroke-width="1.5"/><line x1="0" y1="180" x2="1200" y2="180" stroke="#C9C6C1" stroke-width="1.5"/><line x1="0" y1="240" x2="1200" y2="240" stroke="#C9C6C1" stroke-width="1.5"/><rect x="80" y="300" width="1040" height="24" fill="#2B2B2B"/><rect x="80" y="324" width="1040" height="90" fill="#E6E3DE" stroke="#4C4844" stroke-width="3"/><rect x="560" y="365.0" width="80" height="8" fill="#1E1E1E" rx="4"/><rect x="80" y="414" width="1040" height="110" fill="#E6E3DE" stroke="#4C4844" stroke-width="3"/><rect x="560" y="465.0" width="80" height="8" fill="#1E1E1E" rx="4"/><rect x="80" y="524" width="1040" height="130" fill="#E6E3DE" stroke="#4C4844" stroke-width="3"/><rect x="560" y="585.0" width="80" height="8" fill="#1E1E1E" rx="4"/><rect x="180" y="230" width="60" height="70" fill="#B5523B" rx="8"/><rect x="260" y="250" width="50" height="50" fill="#7B5B44" rx="6"/><rect x="330" y="240" width="40" height="60" fill="#6D6863" rx="6"/><ellipse cx="900" cy="290" rx="70" ry="12" fill="#7B5B44"/><rect x="1032" y="752" width="152" height="34" rx="17" fill="#000" opacity=".45"/><text x="1108" y="775" font-family="Arial,sans-serif" font-size="16" font-weight="700" fill="#fff" text-anchor="middle" letter-spacing="3">SAMPLE</text></svg>