<svg xmlns="http://www.w3.org/2000/svg" viewBox="0 0 1200 800" width="1200" height="800" role="img"><rect x="0" y="0" width="1200" height="560" fill="#EFEAE2"/><rect x="380" y="0" width="520" height="560" fill="#E2D9CB"/><rect x="0" y="560" width="1200" height="240" fill="#D9C7A8"/><line x1="0" y1="608" x2="1200" y2="608" stroke="#CBB794" stroke-width="2"/><line x1="0" y1="656" x2="1200" y2="656" stroke="#CBB794" stroke-width="2"/><line x1="0" y1="704" x2="1200" y2="704" stroke="#CBB794" stroke-width="2"/><line x1="0" y1="752" x2="1200" y2="752" stroke="#CBB794" stroke-width="2"/><line x1="0" y1="800" x2="1200" y2="800" stroke="#CBB794" stroke-width="2"/><rect x="0" y="550" width="1200" height="10" fill="#F4EFE6" opacity="0.8"/><rect x="520" y="150" width="150" height="110" fill="#3A3A36"/><rect x="528" y="158" width="134" height="94" fill="#E2D9CB"/><polygon points="528,252 587.5,199.5 662,252" fill="#6E7B6B" opacity="0.7"/><rect x="700" y="170" width="110" height="90" fill="#3A3A36"/><rect x="708" y="178" width="94" height="74" fill="#E2D9CB"/><polygon points="708,252 749.5,210.5 802,252" fill="#6E7B6B" opacity="0.7"/><rect x="80" y="120" width="220" height="280" fill="#3A3A36"/><rect x="88" y="128" width="204" height="264" fill="#CFE3EE"/><line x1="190.0" y1="128" x2="190.0" y2="392" stroke="#3A3A36" stroke-width="6"/><rect x="60" y="106" width="24" height="320" fill="#B9A68A" opacity="0.9"/><rect x="296" y="106" width="24" height="320" fill="#B9A68A" opacity="0.9"/><ellipse cx="640" cy="700" rx="360" ry="60" fill="#6E7B6B" opacity="0.35"/><rect x="380" y="420" width="520" height="150" fill="#B9A68A" rx="24"/><rect x="400" y="470" width="480" height="70" fill="#F4EFE6" rx="14"/><rect x="360" y="450" width="60" height="130" fill="#B9A68A" rx="20"/><rect x="860" y="450" width="60" height="130" fill="#B9A68A" rx="20"/><rect x="430" y="430" width="90" height="60" fill="#6E7B6B" rx="12"/><rect x="760" y="430" width="90" height="60" fill="#E2D9CB" rx="12"/><line x1="400" y1="575" x2="410" y2="600" stroke="#3A3A36" stroke-width="6"/><line x1="880" y1="575" x2="870" y2="600" stroke="#3A3A36" stroke-width="6"/><ellipse cx="640" cy="650" rx="120" ry="26" fill="#A88A68"/><rect x="630" y="650" width="20" height="50" fill="#3A3A36"/><line x1="1010" y1="230" x2="1010" y2="560" stroke="#2F2F2F" stroke-width="5"/><path d="M970 240 L1050 240 L1030 180 L990 180 Z" fill="#FFF0CC"/><rect x="1084.0" y="500.0" width="52.0" height="60.0" fill="#3A3A36" rx="6"/><ellipse cx="1110" cy="450.0" rx="55.0" ry="60.0" fill="#6E8A5E"/><ellipse cx="1075.0" cy="475.0" rx="30.0" ry="40.0" fill="#6E8A5E" opacity="0.85"/><ellipse cx="1148.0" cy="468.0" rx="30.0" ry="42.0" fill="#6E8A5E" opacity="0.8"/><rect x="1032" y="752" width="152" height="34" rx="17" fill="#000" opacity=".45"/><text x="1108" y="775" font-family="Arial,sans-serif" font-size="16" font-weight="700" fill="#fff" text-anchor="middle" letter-spacing="3">SAMPLE</text></svg>