<svg xmlns="http://www.w3.org/2000/svg" viewBox="0 0 1200 800" width="1200" height="800" role="img"><rect x="0" y="0" width="1200" height="560" fill="#EFEAE2"/><rect x="260" y="0" width="680" height="560" fill="#E2D9CB"/><rect x="0" y="560" width="1200" height="240" fill="#D9C7A8"/><line x1="0" y1="608" x2="1200" y2="608" stroke="#CBB794" stroke-width="2"/><line x1="0" y1="656" x2="1200" y2="656" stroke="#CBB794" stroke-width="2"/><line x1="0" y1="704" x2="1200" y2="704" stroke="#CBB794" stroke-width="2"/><line x1="0" y1="752" x2="1200" y2="752" stroke="#CBB794" stroke-width="2"/><line x1="0" y1="800" x2="1200" y2="800" stroke="#CBB794" stroke-width="2"/><rect x="0" y="550" width="1200" height="10" fill="#F4EFE6" opacity="0.8"/><line x1="270" y1="60" x2="270" y2="550" stroke="#3A3A36" stroke-width="3" opacity="0.25"/><line x1="308" y1="60" x2="308" y2="550" stroke="#3A3A36" stroke-width="3" opacity="0.25"/><line x1="346" y1="60" x2="346" y2="550" stroke="#3A3A36" stroke-width="3" opacity="0.25"/><line x1="384" y1="60" x2="384" y2="550" stroke="#3A3A36" stroke-width="3" opacity="0.25"/><line x1="422" y1="60" x2="422" y2="550" stroke="#3A3A36" stroke-width="3" opacity="0.25"/><line x1="460" y1="60" x2="460" y2="550" stroke="#3A3A36" stroke-width="3" opacity="0.25"/><line x1="498" y1="60" x2="498" y2="550" stroke="#3A3A36" stroke-width="3" opacity="0.25"/><line x1="536" y1="60" x2="536" y2="550" stroke="#3A3A36" stroke-width="3" opacity="0.25"/><line x1="574" y1="60" x2="574" y2="550" stroke="#3A3A36" stroke-width="3" opacity="0.25"/><line x1="612" y1="60" x2="612" y2="550" stroke="#3A3A36" stroke-width="3" opacity="0.25"/><line x1="650" y1="60" x2="650" y2="550" stroke="#3A3A36" stroke-width="3" opacity="0.25"/><line x1="688" y1="60" x2="688" y2="550" stroke="#3A3A36" stroke-width="3" opacity="0.25"/><line x1="726" y1="60" x2="726" y2="550" stroke="#3A3A36" stroke-width="3" opacity="0.25"/><line x1="764" y1="60" x2="764" y2="550" stroke="#3A3A36" stroke-width="3" opacity="0.25"/><line x1="802" y1="60" x2="802" y2="550" stroke="#3A3A36" stroke-width="3" opacity="0.25"/><line x1="840" y1="60" x2="840" y2="550" stroke="#3A3A36" stroke-width="3" opacity="0.25"/><line x1="878" y1="60" x2="878" y2="550" stroke="#3A3A36" stroke-width="3" opacity="0.25"/><line x1="916" y1="60" x2="916" y2="550" stroke="#3A3A36" stroke-width="3" opacity="0.25"/><rect x="400" y="160" width="400" height="230" fill="#1C1C1C" rx="6"/><rect x="410" y="170" width="380" height="210" fill="#2A3440" rx="2"/><rect x="300" y="440" width="600" height="70" fill="#A88A68" rx="4"/><rect x="300" y="440" width="600" height="8" fill="#3A3A36" opacity="0.4"/><line x1="450" y1="448" x2="450" y2="510" stroke="#3A3A36" stroke-width="2" opacity="0.5"/><line x1="600" y1="448" x2="600" y2="510" stroke="#3A3A36" stroke-width="2" opacity="0.5"/><line x1="750" y1="448" x2="750" y2="510" stroke="#3A3A36" stroke-width="2" opacity="0.5"/><rect x="300" y="510" width="600" height="6" fill="#FFF0CC" opacity="0.8"/><rect x="980" y="140" width="160" height="12" fill="#A88A68"/><rect x="980" y="260" width="160" height="12" fill="#A88A68"/><rect x="990" y="100" width="30" height="40" fill="#6E7B6B"/><rect x="1040" y="220" width="60" height="40" fill="#B9A68A"/><rect x="111.4" y="494.0" width="57.2" height="66.0" fill="#3A3A36" rx="6"/><ellipse cx="140" cy="439.0" rx="60.50000000000001" ry="66.0" fill="#6E8A5E"/><ellipse cx="101.5" cy="466.5" rx="33.0" ry="44.0" fill="#6E8A5E" opacity="0.85"/><ellipse cx="181.8" cy="458.8" rx="33.0" ry="46.2" fill="#6E8A5E" opacity="0.8"/><ellipse cx="600" cy="720" rx="300" ry="40" fill="#B9A68A" opacity="0.4"/><rect x="1032" y="752" width="152" height="34" rx="17" fill="#000" opacity=".45"/><text x="1108" y="775" font-family="Arial,sans-serif" font-size="16" font-weight="700" fill="#fff" text-anchor="middle" letter-spacing="3">SAMPLE</text></svg>