<svg xmlns="http://www.w3.org/2000/svg" viewBox="0 0 1200 800" width="1200" height="800" role="img"><rect x="0" y="0" width="1200" height="600" fill="#F7F3EA"/><rect x="0" y="600" width="1200" height="200" fill="#D8A27A"/><line x1="0" y1="648" x2="1200" y2="648" stroke="#C78F67" stroke-width="2"/><line x1="0" y1="696" x2="1200" y2="696" stroke="#C78F67" stroke-width="2"/><line x1="0" y1="744" x2="1200" y2="744" stroke="#C78F67" stroke-width="2"/><line x1="0" y1="792" x2="1200" y2="792" stroke="#C78F67" stroke-width="2"/><line x1="0" y1="840" x2="1200" y2="840" stroke="#C78F67" stroke-width="2"/><rect x="0" y="590" width="1200" height="10" fill="#FFFFFF" opacity="0.8"/><rect x="100" y="80" width="400" height="260" fill="#2E5E8C"/><rect x="108" y="88" width="384" height="244" fill="#CFE3EE"/><line x1="300.0" y1="88" x2="300.0" y2="332" stroke="#2E5E8C" stroke-width="6"/><rect x="80" y="66" width="24" height="300" fill="#5E8DB8" opacity="0.9"/><rect x="496" y="66" width="24" height="300" fill="#5E8DB8" opacity="0.9"/><rect x="700" y="80" width="400" height="260" fill="#2E5E8C"/><rect x="708" y="88" width="384" height="244" fill="#CFE3EE"/><line x1="900.0" y1="88" x2="900.0" y2="332" stroke="#2E5E8C" stroke-width="6"/><rect x="680" y="66" width="24" height="300" fill="#5E8DB8" opacity="0.9"/><rect x="1096" y="66" width="24" height="300" fill="#5E8DB8" opacity="0.9"/><circle cx="300" cy="20" r="8" fill="#FFF1CF" stroke="#3E4A56" stroke-width="2"/><polygon points="292,28 308,28 360,240 240,240" fill="#FFF1CF" opacity="0.12"/><circle cx="600" cy="20" r="8" fill="#FFF1CF" stroke="#3E4A56" stroke-width="2"/><polygon points="592,28 608,28 660,240 540,240" fill="#FFF1CF" opacity="0.12"/><circle cx="900" cy="20" r="8" fill="#FFF1CF" stroke="#3E4A56" stroke-width="2"/><polygon points="892,28 908,28 960,240 840,240" fill="#FFF1CF" opacity="0.12"/><rect x="120" y="440" width="960" height="18" fill="#FFFFFF" stroke="#C78F67" stroke-width="2"/><line x1="120" y1="458" x2="120" y2="530" stroke="#3E4A56" stroke-width="6"/><line x1="1080" y1="458" x2="1080" y2="530" stroke="#3E4A56" stroke-width="6"/><rect x="170" y="370" width="110" height="66" fill="#222" rx="4"/><rect x="178" y="376" width="94" height="52" fill="#3A4A5A"/><rect x="200" y="470" width="70" height="50" fill="#D97B48" rx="8" opacity="0.85"/><rect x="360" y="370" width="110" height="66" fill="#222" rx="4"/><rect x="368" y="376" width="94" height="52" fill="#3A4A5A"/><rect x="390" y="470" width="70" height="50" fill="#D97B48" rx="8" opacity="0.85"/><rect x="550" y="370" width="110" height="66" fill="#222" rx="4"/><rect x="558" y="376" width="94" height="52" fill="#3A4A5A"/><rect x="580" y="470" width="70" height="50" fill="#D97B48" rx="8" opacity="0.85"/><rect x="740" y="370" width="110" height="66" fill="#222" rx="4"/><rect x="748" y="376" width="94" height="52" fill="#3A4A5A"/><rect x="770" y="470" width="70" height="50" fill="#D97B48" rx="8" opacity="0.85"/><rect x="930" y="370" width="110" height="66" fill="#222" rx="4"/><rect x="938" y="376" width="94" height="52" fill="#3A4A5A"/><rect x="960" y="470" width="70" height="50" fill="#D97B48" rx="8" opacity="0.85"/><rect x="120" y="560" width="960" height="18" fill="#FFFFFF" stroke="#C78F67" stroke-width="2"/><line x1="120" y1="578" x2="120" y2="650" stroke="#3E4A56" stroke-width="6"/><line x1="1080" y1="578" x2="1080" y2="650" stroke="#3E4A56" stroke-width="6"/><rect x="170" y="490" width="110" height="66" fill="#222" rx="4"/><rect x="178" y="496" width="94" height="52" fill="#3A4A5A"/><rect x="200" y="590" width="70" height="50" fill="#D97B48" rx="8" opacity="0.85"/><rect x="360" y="490" width="110" height="66" fill="#222" rx="4"/><rect x="368" y="496" width="94" height="52" fill="#3A4A5A"/><rect x="390" y="590" width="70" height="50" fill="#D97B48" rx="8" opacity="0.85"/><rect x="550" y="490" width="110" height="66" fill="#222" rx="4"/><rect x="558" y="496" width="94" height="52" fill="#3A4A5A"/><rect x="580" y="590" width="70" height="50" fill="#D97B48" rx="8" opacity="0.85"/><rect x="740" y="490" width="110" height="66" fill="#222" rx="4"/><rect x="748" y="496" width="94" height="52" fill="#3A4A5A"/><rect x="770" y="590" width="70" height="50" fill="#D97B48" rx="8" opacity="0.85"/><rect x="930" y="490" width="110" height="66" fill="#222" rx="4"/><rect x="938" y="496" width="94" height="52" fill="#3A4A5A"/><rect x="960" y="590" width="70" height="50" fill="#D97B48" rx="8" opacity="0.85"/><rect x="1032" y="752" width="152" height="34" rx="17" fill="#000" opacity=".45"/><text x="1108" y="775" font-family="Arial,sans-serif" font-size="16" font-weight="700" fill="#fff" text-anchor="middle" letter-spacing="3">SAMPLE</text></svg>