<svg xmlns="http://www.w3.org/2000/svg" viewBox="0 0 1200 800" width="1200" height="800" role="img"><rect x="0" y="0" width="1200" height="600" fill="#F7F3EA"/><rect x="0" y="600" width="1200" height="200" fill="#D8A27A"/><line x1="0" y1="648" x2="1200" y2="648" stroke="#C78F67" stroke-width="2"/><line x1="0" y1="696" x2="1200" y2="696" stroke="#C78F67" stroke-width="2"/><line x1="0" y1="744" x2="1200" y2="744" stroke="#C78F67" stroke-width="2"/><line x1="0" y1="792" x2="1200" y2="792" stroke="#C78F67" stroke-width="2"/><line x1="0" y1="840" x2="1200" y2="840" stroke="#C78F67" stroke-width="2"/><rect x="0" y="590" width="1200" height="10" fill="#FFFFFF" opacity="0.8"/><rect x="100" y="60" width="1000" height="500" fill="#DCE9EE" opacity="0.45"/><line x1="100" y1="60" x2="100" y2="560" stroke="#3E4A56" stroke-width="6"/><line x1="300" y1="60" x2="300" y2="560" stroke="#3E4A56" stroke-width="6"/><line x1="500" y1="60" x2="500" y2="560" stroke="#3E4A56" stroke-width="6"/><line x1="700" y1="60" x2="700" y2="560" stroke="#3E4A56" stroke-width="6"/><line x1="900" y1="60" x2="900" y2="560" stroke="#3E4A56" stroke-width="6"/><line x1="1100" y1="60" x2="1100" y2="560" stroke="#3E4A56" stroke-width="6"/><line x1="100" y1="60" x2="1100" y2="60" stroke="#3E4A56" stroke-width="8"/><rect x="380" y="360" width="440" height="22" fill="#B58A5E"/><rect x="400" y="382" width="400" height="120" fill="#B58A5E" opacity="0.8"/><rect x="560" y="250" width="90" height="110" fill="#2E5E8C" rx="10"/><rect x="540" y="300" width="130" height="30" fill="#2E5E8C" rx="10"/><rect x="860" y="160" width="200" height="380" fill="#B58A5E"/><rect x="870" y="200" width="180" height="6" fill="#2E5E8C"/><rect x="870" y="280" width="180" height="6" fill="#2E5E8C"/><rect x="870" y="360" width="180" height="6" fill="#2E5E8C"/><rect x="870" y="440" width="180" height="6" fill="#2E5E8C"/><rect x="214.0" y="500.0" width="52.0" height="60.0" fill="#2E5E8C" rx="6"/><ellipse cx="240" cy="450.0" rx="55.0" ry="60.0" fill="#5F8F58"/><ellipse cx="205.0" cy="475.0" rx="30.0" ry="40.0" fill="#5F8F58" opacity="0.85"/><ellipse cx="278.0" cy="468.0" rx="30.0" ry="42.0" fill="#5F8F58" opacity="0.8"/><rect x="1032" y="752" width="152" height="34" rx="17" fill="#000" opacity=".45"/><text x="1108" y="775" font-family="Arial,sans-serif" font-size="16" font-weight="700" fill="#fff" text-anchor="middle" letter-spacing="3">SAMPLE</text></svg>