<svg xmlns="http://www.w3.org/2000/svg" viewBox="0 0 1200 800" width="1200" height="800" role="img"><rect x="0" y="0" width="1200" height="560" fill="#EFEAE2"/><rect x="360" y="0" width="480" height="560" fill="#E2D9CB"/><rect x="0" y="560" width="1200" height="240" fill="#D9C7A8"/><line x1="0" y1="608" x2="1200" y2="608" stroke="#CBB794" stroke-width="2"/><line x1="0" y1="656" x2="1200" y2="656" stroke="#CBB794" stroke-width="2"/><line x1="0" y1="704" x2="1200" y2="704" stroke="#CBB794" stroke-width="2"/><line x1="0" y1="752" x2="1200" y2="752" stroke="#CBB794" stroke-width="2"/><line x1="0" y1="800" x2="1200" y2="800" stroke="#CBB794" stroke-width="2"/><rect x="0" y="550" width="1200" height="10" fill="#F4EFE6" opacity="0.8"/><path d="M380 560 L380 220 Q600 20 820 220 L820 560 Z" fill="#A88A68"/><path d="M410 540 L410 230 Q600 60 790 230 L790 540 Z" fill="#F4EFE6"/><circle cx="600" cy="260" r="90" fill="#FFF0CC" opacity="0.7"/><rect x="430" y="380" width="340" height="16" fill="#A88A68"/><rect x="430" y="470" width="340" height="70" fill="#A88A68" opacity="0.85"/><line x1="600" y1="470" x2="600" y2="540" stroke="#3A3A36" stroke-width="3"/><line x1="470" y1="230" x2="470" y2="300" stroke="#2F2F2F" stroke-width="3"/><path d="M452 330 Q470 280 488 330 Z" fill="#2F2F2F"/><line x1="730" y1="230" x2="730" y2="300" stroke="#2F2F2F" stroke-width="3"/><path d="M712 330 Q730 280 748 330 Z" fill="#2F2F2F"/><ellipse cx="520" cy="372" rx="16" ry="7" fill="#2F2F2F"/><ellipse cx="520" cy="358" rx="5" ry="9" fill="#FFB547"/><ellipse cx="600" cy="372" rx="16" ry="7" fill="#2F2F2F"/><ellipse cx="600" cy="358" rx="5" ry="9" fill="#FFB547"/><ellipse cx="680" cy="372" rx="16" ry="7" fill="#2F2F2F"/><ellipse cx="680" cy="358" rx="5" ry="9" fill="#FFB547"/><rect x="976.6" y="506.0" width="46.800000000000004" height="54.0" fill="#3A3A36" rx="6"/><ellipse cx="1000" cy="461.0" rx="49.5" ry="54.0" fill="#6E8A5E"/><ellipse cx="968.5" cy="483.5" rx="27.0" ry="36.0" fill="#6E8A5E" opacity="0.85"/><ellipse cx="1034.2" cy="477.2" rx="27.0" ry="37.800000000000004" fill="#6E8A5E" opacity="0.8"/><ellipse cx="600" cy="650" rx="200" ry="30" fill="#6E7B6B" opacity="0.5"/><rect x="1032" y="752" width="152" height="34" rx="17" fill="#000" opacity=".45"/><text x="1108" y="775" font-family="Arial,sans-serif" font-size="16" font-weight="700" fill="#fff" text-anchor="middle" letter-spacing="3">SAMPLE</text></svg>