<svg xmlns="http://www.w3.org/2000/svg" viewBox="0 0 1200 800" width="1200" height="800" role="img"><rect x="0" y="0" width="1200" height="560" fill="#EDE6DC"/><rect x="0" y="560" width="1200" height="240" fill="#C9B79C"/><line x1="0" y1="608" x2="1200" y2="608" stroke="#B8A588" stroke-width="2"/><line x1="0" y1="656" x2="1200" y2="656" stroke="#B8A588" stroke-width="2"/><line x1="0" y1="704" x2="1200" y2="704" stroke="#B8A588" stroke-width="2"/><line x1="0" y1="752" x2="1200" y2="752" stroke="#B8A588" stroke-width="2"/><line x1="0" y1="800" x2="1200" y2="800" stroke="#B8A588" stroke-width="2"/><rect x="0" y="550" width="1200" height="10" fill="#F5F1EA" opacity="0.8"/><rect x="300" y="120" width="600" height="14" fill="#8C6E54"/><rect x="300" y="230" width="600" height="14" fill="#8C6E54"/><rect x="320" y="70" width="20" height="50" fill="#B5523B"/><rect x="346" y="76" width="20" height="44" fill="#9C8B78"/><rect x="372" y="82" width="20" height="38" fill="#5B4A3B"/><rect x="398" y="70" width="20" height="50" fill="#B5523B"/><rect x="424" y="76" width="20" height="44" fill="#9C8B78"/><rect x="450" y="82" width="20" height="38" fill="#5B4A3B"/><rect x="476" y="70" width="20" height="50" fill="#B5523B"/><rect x="502" y="76" width="20" height="44" fill="#9C8B78"/><rect x="528" y="82" width="20" height="38" fill="#5B4A3B"/><rect x="554" y="70" width="20" height="50" fill="#B5523B"/><rect x="700" y="180" width="80" height="50" fill="#5E7B55" rx="6"/><rect x="260" y="380" width="680" height="24" fill="#8C6E54"/><rect x="260" y="404" width="160" height="156" fill="#8C6E54" opacity="0.85"/><rect x="860" y="404" width="20" height="156" fill="#5B4A3B"/><rect x="520" y="290" width="180" height="110" fill="#222" rx="6"/><rect x="530" y="300" width="160" height="90" fill="#3A4A5A"/><line x1="820" y1="380" x2="840" y2="300" stroke="#2B2B2B" stroke-width="5"/><path d="M810 300 L880 300 L860 270 L830 270 Z" fill="#B5523B"/><rect x="560" y="470" width="120" height="20" fill="#9C8B78" rx="8"/><rect x="560" y="420" width="120" height="54" fill="#9C8B78" rx="8"/><line x1="620" y1="490" x2="620" y2="600" stroke="#2B2B2B" stroke-width="6"/><rect x="1000" y="140" width="140" height="240" fill="#5B4A3B"/><rect x="1008" y="148" width="124" height="224" fill="#CFE3EE"/><line x1="1070.0" y1="148" x2="1070.0" y2="372" stroke="#5B4A3B" stroke-width="6"/><rect x="980" y="126" width="24" height="280" fill="#9C8B78" opacity="0.9"/><rect x="1136" y="126" width="24" height="280" fill="#9C8B78" opacity="0.9"/><rect x="1032" y="752" width="152" height="34" rx="17" fill="#000" opacity=".45"/><text x="1108" y="775" font-family="Arial,sans-serif" font-size="16" font-weight="700" fill="#fff" text-anchor="middle" letter-spacing="3">SAMPLE</text></svg>