<svg xmlns="http://www.w3.org/2000/svg" viewBox="0 0 1200 800" width="1200" height="800" role="img"><rect x="0" y="0" width="1200" height="600" fill="#EDE6DC"/><rect x="0" y="600" width="1200" height="200" fill="#C9B79C"/><line x1="0" y1="648" x2="1200" y2="648" stroke="#B8A588" stroke-width="2"/><line x1="0" y1="696" x2="1200" y2="696" stroke="#B8A588" stroke-width="2"/><line x1="0" y1="744" x2="1200" y2="744" stroke="#B8A588" stroke-width="2"/><line x1="0" y1="792" x2="1200" y2="792" stroke="#B8A588" stroke-width="2"/><line x1="0" y1="840" x2="1200" y2="840" stroke="#B8A588" stroke-width="2"/><rect x="0" y="590" width="1200" height="10" fill="#F5F1EA" opacity="0.8"/><rect x="0" y="60" width="280" height="540" fill="#8C6E54"/><rect x="920" y="60" width="280" height="540" fill="#8C6E54"/><rect x="20" y="100" width="240" height="8" fill="#F5F1EA"/><rect x="940" y="100" width="240" height="8" fill="#F5F1EA"/><rect x="20" y="195" width="240" height="8" fill="#F5F1EA"/><rect x="940" y="195" width="240" height="8" fill="#F5F1EA"/><rect x="20" y="290" width="240" height="8" fill="#F5F1EA"/><rect x="940" y="290" width="240" height="8" fill="#F5F1EA"/><rect x="20" y="385" width="240" height="8" fill="#F5F1EA"/><rect x="940" y="385" width="240" height="8" fill="#F5F1EA"/><rect x="20" y="480" width="240" height="8" fill="#F5F1EA"/><rect x="940" y="480" width="240" height="8" fill="#F5F1EA"/><rect x="40" y="120" width="30" height="160" fill="#B5523B" rx="4"/><rect x="950" y="120" width="30" height="160" fill="#9C8B78" rx="4"/><rect x="84" y="120" width="30" height="160" fill="#9C8B78" rx="4"/><rect x="994" y="120" width="30" height="160" fill="#5B4A3B" rx="4"/><rect x="128" y="120" width="30" height="160" fill="#5B4A3B" rx="4"/><rect x="1038" y="120" width="30" height="160" fill="#B5523B" rx="4"/><rect x="172" y="120" width="30" height="160" fill="#D9CFC1" rx="4"/><rect x="1082" y="120" width="30" height="160" fill="#D9CFC1" rx="4"/><rect x="216" y="120" width="30" height="160" fill="#B5523B" rx="4"/><rect x="1126" y="120" width="30" height="160" fill="#9C8B78" rx="4"/><rect x="420" y="440" width="360" height="160" fill="#F5F1EA" stroke="#B8A588" stroke-width="2"/><rect x="420" y="430" width="360" height="14" fill="#5B4A3B"/><rect x="560" y="470" width="80" height="6" fill="#2B2B2B"/><rect x="560" y="512" width="80" height="6" fill="#2B2B2B"/><rect x="560" y="554" width="80" height="6" fill="#2B2B2B"/><line x1="600" y1="0" x2="600" y2="240" stroke="#2B2B2B" stroke-width="3"/><path d="M540.0 280 Q600 200 660.0 280 Z" fill="#B5523B"/><ellipse cx="600" cy="286" rx="50.0" ry="10" fill="#FFE7B3" opacity="0.9"/><circle cx="600" cy="200" r="0" fill="#FFE7B3"/><rect x="1032" y="752" width="152" height="34" rx="17" fill="#000" opacity=".45"/><text x="1108" y="775" font-family="Arial,sans-serif" font-size="16" font-weight="700" fill="#fff" text-anchor="middle" letter-spacing="3">SAMPLE</text></svg>